<?xml version="1.0" encoding="utf-8"?>
<!-- Generator: Adobe Illustrator 23.0.1, SVG Export Plug-In . SVG Version: 6.00 Build 0)  -->
<svg version="1.1" id="Capa_1" xmlns="http://www.w3.org/2000/svg" xmlns:xlink="http://www.w3.org/1999/xlink" x="0px" y="0px"
	 viewBox="0 0 274.4 274.4" style="enable-background:new 0 0 274.4 274.4;" xml:space="preserve">
<style type="text/css">
	.st0{fill:none;stroke:#FFFFFF;stroke-width:20.0434;stroke-miterlimit:10;}
</style>
<path d="M137.2,115.6c-28.7,0-52,23.3-52,52s23.3,52,52,52s52-23.3,52-52S165.9,115.6,137.2,115.6z M137.2,206.8
	c-21.7,0-39.2-17.7-39.2-39.2s17.5-39.2,39.2-39.2c21.5,0,39.2,17.5,39.2,39.2C176.3,189.2,158.7,206.8,137.2,206.8z"/>
<path d="M109.1,111.4c13.8,0,25.1-11.3,25.1-25.1s-11.3-25.1-25.1-25.1s-25,11.4-25,25.1C84.1,100.2,95.4,111.4,109.1,111.4z
	 M109.1,74.2c6.8,0,12.2,5.5,12.2,12.2c0,6.8-5.5,12.2-12.2,12.2C102.4,98.5,97,93,97,86.3C97,79.7,102.4,74.2,109.1,74.2z"/>
<path d="M164.6,111.4c13.8,0,25.1-11.3,25.1-25.1s-11.3-25.1-25.1-25.1s-25.1,11.3-25.1,25.1C139.6,100.2,150.7,111.4,164.6,111.4z
	 M164.6,74.2c6.8,0,12.2,5.5,12.2,12.2c0,6.8-5.5,12.2-12.2,12.2c-6.8,0-12.2-5.5-12.2-12.2C152.3,79.7,157.9,74.2,164.6,74.2z"/>
<path d="M92.5,125c0-12.8-10.4-23.2-23.2-23.2S46.1,112.3,46.1,125s10.4,23.2,23.2,23.2S92.5,137.8,92.5,125z M69.3,135.4
	c-5.6,0-10.4-4.6-10.4-10.3c0-5.6,4.6-10.3,10.4-10.3c5.6,0,10.3,4.6,10.3,10.3C79.6,130.8,74.9,135.4,69.3,135.4z"/>
<path d="M204.5,101.9c-12.8,0-23.2,10.4-23.2,23.2s10.4,23.2,23.2,23.2s23.2-10.4,23.2-23.2S217.2,101.9,204.5,101.9z M204.5,135.4
	c-5.6,0-10.3-4.6-10.3-10.3c0-5.6,4.6-10.3,10.3-10.3s10.4,4.6,10.4,10.3S210.2,135.4,204.5,135.4z"/>
<path class="st0" d="M210.1,259.4H64.3c-27.3,0-49.3-22-49.3-49.3V64.3C15,37,37,15,64.3,15h145.8c27.3,0,49.3,22,49.3,49.3v145.8
	C259.4,237.2,237.2,259.4,210.1,259.4z"/>
</svg>
